HIERARCHY
ROOT Hips
{
  OFFSET 13.6774 106.653 -34.4427
  CHANNELS 6 Xposition Yposition Zposition Zrotation Xrotation Yrotation
  JOINT ToSpine
  {
    OFFSET -2.69724 7.43032 -0.144315
    CHANNELS 3 Zrotation Xrotation Yrotation
    JOINT Spine
    {
      OFFSET -0.0310711 10.7595 1.96963
      CHANNELS 3 Zrotation Xrotation Yrotation
      JOINT Spine1
      {
        OFFSET 19.9056 3.91189 0.764692
        CHANNELS 3 Zrotation Xrotation Yrotation
        JOINT Neck
        {
          OFFSET 25.9749 7.03908 -0.130764
          CHANNELS 3 Zrotation Xrotation Yrotation
          JOINT Head
          {
            OFFSET 9.52751 0.295786 -0.907742
            CHANNELS 3 Zrotation Xrotation Yrotation
            End Site
            {
              OFFSET 16.4037 0.713936 2.7358
            }
          }
        }
        JOINT LeftShoulder
        {
          OFFSET 17.7449 4.33886 11.7777
          CHANNELS 3 Zrotation Xrotation Yrotation
          JOINT LeftArm
          {
            OFFSET 0.911315 1.27913 9.80584
            CHANNELS 3 Zrotation Xrotation Yrotation
            JOINT LeftForeArm
            {
              OFFSET 28.6126 1.18197 -3.53199
              CHANNELS 3 Zrotation Xrotation Yrotation
              JOINT LeftHand
              {
                OFFSET 27.5088 0.0218783 0.327423
                CHANNELS 3 Zrotation Xrotation Yrotation
                End Site
                {
                  OFFSET 18.6038 -0.000155887 0.382096
                }
              }
            }
          }
        }
        JOINT RightShoulder
        {
          OFFSET 17.1009 2.89543 -12.2328
          CHANNELS 3 Zrotation Xrotation Yrotation
          JOINT RightArm
          {
            OFFSET 1.4228 0.178766 -10.211
            CHANNELS 3 Zrotation Xrotation Yrotation
            JOINT RightForeArm
            {
              OFFSET 28.733 1.87905 2.64907
              CHANNELS 3 Zrotation Xrotation Yrotation
              JOINT RightHand
              {
                OFFSET 27.4588 0.290562 -0.101845
                CHANNELS 3 Zrotation Xrotation Yrotation
                End Site
                {
                  OFFSET 17.8396 -0.255518 -0.000602873
                }
              }
            }
          }
        }
      }
    }
  }
  JOINT LeftUpLeg
  {
    OFFSET -5.61296 -2.22332 -10.2353
    CHANNELS 3 Zrotation Xrotation Yrotation
    JOINT LeftLeg
    {
      OFFSET 2.56703 -44.7417 -7.93097
      CHANNELS 3 Zrotation Xrotation Yrotation
      JOINT LeftFoot
      {
        OFFSET 3.16933 -46.5642 -3.96578
        CHANNELS 3 Zrotation Xrotation Yrotation
        JOINT LeftToeBase
        {
          OFFSET 0.346054 -6.02161 12.8035
          CHANNELS 3 Zrotation Xrotation Yrotation
          End Site
          {
            OFFSET 0.134235 -1.35082 5.13018
          }
        }
      }
    }
  }
  JOINT RightUpLeg
  {
    OFFSET -5.7928 -1.72406 10.6446
    CHANNELS 3 Zrotation Xrotation Yrotation
    JOINT RightLeg
    {
      OFFSET -2.57161 -44.7178 -7.85259
      CHANNELS 3 Zrotation Xrotation Yrotation
      JOINT RightFoot
      {
        OFFSET -3.10148 -46.5936 -4.03391
        CHANNELS 3 Zrotation Xrotation Yrotation
        JOINT RightToeBase
        {
          OFFSET -0.0828122 -6.13587 12.8035
          CHANNELS 3 Zrotation Xrotation Yrotation
          End Site
          {
            OFFSET -0.131328 -1.35082 5.13018
          }
        }
      }
    }
  }
}
MOTION
Frames: 7
Frame Time: 0.03333333333333333
0.0000 93.1000 0.0000 64.1222 -2.3056 -13.1380 -70.8813 0.2523 88.1384 120.0153 63.6082 -25.2690 -13.2468 17.0925 1.1379 -148.0452 33.0433 159.3067 -131.6280 71.1295 166.2454 -2.8792 -25.1909 -33.7590 -67.3320 19.8124 -139.9137 26.4940 -1.5627 -92.0940 0.4205 -0.4274 0.6084 1.0079 4.4826 6.7815 -133.8211 0.0325 102.1249 -3.6501 0.9570 59.8570 -0.3077 1.0536 0.8718 -53.2373 7.8050 104.3011 -1.6113 31.3602 -3.3849 -8.8228 -8.0768 -0.9296 6.0530 -14.9767 8.7874 -14.7731 -3.2722 116.1923 1.0744 50.0174 -8.2346 4.2665 -2.8674 -1.2388 1.8762 0.0863 -10.3947 
0.0000 93.1000 0.0000 64.2290 4.6236 -9.0332 -70.9610 0.3164 88.2331 114.6201 63.6484 -21.2396 -11.4379 17.7840 -1.6518 -143.0599 34.9790 152.1153 -131.5423 74.8600 168.3142 -2.5324 -24.1502 -30.7862 -65.3181 17.5030 -143.8873 26.0537 -2.5441 -94.1543 0.6336 -0.3978 0.8849 0.8714 5.3608 8.9362 -138.5478 1.0732 103.0149 -2.9927 -0.5035 63.8387 -0.5017 1.3977 1.2422 -49.5825 12.1162 102.3240 -3.4236 30.0293 -7.5426 -7.4667 -3.4921 -0.2583 5.5331 -15.1353 5.1254 -16.6796 -5.0794 114.4705 0.7351 47.0916 -5.2387 3.4561 -1.1168 -1.3915 3.0216 -6.6957 -12.2199 
0.0000 93.1000 0.0000 64.0352 9.9906 -5.5691 -70.9638 -0.9119 88.2548 112.7129 64.5427 -19.6618 -9.4083 18.4069 -2.5374 -139.9314 38.1082 152.5978 -137.6480 78.9385 174.6388 -2.4475 -24.2429 -29.8130 -63.9040 15.5080 -146.1543 25.4074 -4.2519 -95.1399 -0.4707 -0.1993 -0.9536 -1.5518 6.4920 11.8247 -140.4684 2.3552 102.8723 0.2643 -0.0357 67.0831 0.6849 -1.7309 -2.0595 -48.9243 12.0218 99.2730 -2.5039 25.0454 -6.7885 -6.7426 -2.6029 0.5094 6.4424 -15.5933 6.7069 -21.6726 -7.8663 112.1139 1.7658 44.2497 0.6926 5.2032 -1.8435 -0.6289 0.2858 -11.4678 -20.8018 
0.0000 93.1000 0.0000 64.8111 12.7625 -2.6135 -70.9764 -0.3463 88.4374 112.8321 65.9678 -20.9978 -9.4815 19.1204 -2.4896 -135.1570 39.9661 152.5462 -160.3240 82.4433 -161.8705 -2.8928 -22.8342 -28.9360 -64.4182 15.4261 -148.8883 23.4246 -2.5593 -95.2821 0.1519 -0.8668 1.2105 -0.5210 6.4998 13.9927 -141.8166 1.9750 102.4628 2.5452 -2.0708 68.8501 -0.9392 1.5260 1.4825 -50.6152 12.8581 98.4504 -1.3045 24.0184 -3.2959 -6.9408 -2.1505 0.4814 4.1831 -12.8023 3.0987 -25.1211 -8.9397 107.2366 0.8609 41.1580 0.5015 7.3773 -6.3607 -0.6908 2.3739 -4.2053 -14.7143 
0.0000 93.1000 0.0000 65.5942 15.0682 0.7790 -70.8472 0.7931 88.2205 111.9702 66.8706 -22.9674 -7.9611 19.1449 0.2999 -132.1159 41.3245 153.5831 -173.5400 84.0256 -150.2806 -0.0857 -22.1282 -27.9811 -63.9433 16.5809 -151.9277 22.6840 -2.3472 -94.2160 -0.4698 1.0998 -1.1857 -0.5327 6.3258 16.8185 -143.8377 2.5659 100.1008 2.4272 -1.5975 71.5963 0.4469 -2.7529 -1.3641 -50.1452 14.0647 98.2766 -1.1865 22.8082 -5.8178 -6.3262 -2.8159 -0.8538 6.0383 -12.3265 3.1886 -27.8120 -10.4700 102.1042 2.1754 39.1068 3.1548 9.1379 -9.3379 0.3261 1.5446 -3.6247 -15.0258 
0.0000 93.1000 0.0000 66.7310 16.7341 2.7286 -70.7094 -0.1538 87.8212 108.0130 67.4751 -23.1650 -8.0580 18.6835 2.2754 -132.0683 41.2430 152.8288 175.1831 84.1087 -141.4689 -1.5536 -21.8876 -27.8814 -64.8849 15.4868 -153.9954 20.9354 -2.0261 -93.2195 0.4629 -0.5957 0.8516 -0.6515 5.5955 21.3473 -145.5208 4.8965 98.7121 3.9402 -2.1085 73.4900 -0.5215 0.7583 0.9222 -49.1748 15.5354 97.4948 -0.3702 23.2815 -8.5122 -7.3852 -2.6694 0.1987 3.9316 -10.3228 1.0684 -29.7299 -12.5238 95.8041 1.8029 38.9040 5.8388 6.3444 -9.3778 -0.3935 2.9371 -5.1224 -19.6569 
0.0000 93.1000 0.0000 66.5062 18.5255 4.7222 -70.8781 -0.3064 87.9111 105.7665 67.6629 -18.9079 -7.0935 18.3904 2.7748 -131.0258 41.7435 154.7957 155.7112 83.5335 -125.2442 -1.4049 -21.2358 -27.0087 -66.0510 16.7766 -155.0826 19.5795 -2.1550 -93.2812 0.1008 -0.8030 0.5813 -0.9464 4.7755 23.8911 -145.4363 5.0005 98.2342 3.7056 -1.6429 74.8934 -0.4963 0.9081 0.7822 -48.2168 16.2487 94.3251 0.5451 26.3380 -9.7256 -7.0643 -4.0993 0.0783 2.9160 -9.1551 0.7034 -31.9288 -15.1307 89.4316 1.5279 38.1244 8.0361 5.1045 -7.6738 -0.5410 2.3133 -4.0841 -19.0622 
